<?xml version="1.0" encoding="UTF-8" standalone="no"?><!DOCTYPE svg PUBLIC "-//W3C//DTD SVG 1.1//EN" "http://www.w3.org/Graphics/SVG/1.1/DTD/svg11.dtd"><svg width="100%" height="100%" viewBox="0 0 512 320" version="1.1" xmlns="http://www.w3.org/2000/svg" xmlns:xlink="http://www.w3.org/1999/xlink" xml:space="preserve" xmlns:serif="http://www.serif.com/" style="fill-rule:evenodd;clip-rule:evenodd;stroke-linejoin:round;stroke-miterlimit:2;"><path id="Behance" d="M462.373,45.795l-128.289,0l0,-31.866l128.3,0l0,31.866l-0.011,0Zm-213.693,130.672c8.278,12.821 12.414,28.389 12.414,46.665c0,18.901 -4.664,35.856 -14.152,50.833c-6.036,9.911 -13.531,18.283 -22.536,25.023c-10.142,7.794 -22.149,13.139 -35.952,15.995c-13.848,2.86 -28.835,4.305 -44.98,4.305l-143.474,0l0,-318.575l153.854,0c38.78,0.631 66.274,11.867 82.509,33.932c9.742,13.533 14.569,29.772 14.569,48.648c0,19.476 -4.885,35.061 -14.722,46.901c-5.472,6.639 -13.556,12.677 -24.257,18.128c16.209,5.934 28.507,15.278 36.727,28.145Zm-175.209,-50.156l67.413,0c13.853,0 25.052,-2.633 33.677,-7.897c8.619,-5.255 12.92,-14.597 12.92,-28.01c0,-14.819 -5.694,-24.655 -17.111,-29.389c-9.813,-3.289 -22.369,-4.983 -37.605,-4.983l-59.294,0l0,70.279Zm120.501,92.271c0,-16.549 -6.763,-27.989 -20.263,-34.128c-7.549,-3.489 -18.201,-5.272 -31.858,-5.399l-68.38,0l0,84.898l67.322,0c13.831,0 24.536,-1.81 32.261,-5.587c13.932,-6.945 20.918,-20.161 20.918,-39.784Zm316,-51.827c1.549,10.422 2.251,25.545 1.966,45.311l-166.148,0c0.917,22.933 8.834,38.971 23.849,48.148c9.055,5.756 20.034,8.566 32.89,8.566c13.556,0 24.604,-3.427 33.11,-10.471c4.634,-3.735 8.721,-9.005 12.256,-15.656l60.898,0c-1.595,13.545 -8.928,27.283 -22.105,41.244c-20.416,22.189 -49.048,33.315 -85.821,33.315c-30.378,0 -57.15,-9.383 -80.388,-28.083c-23.161,-18.764 -34.793,-49.197 -34.793,-91.413c0,-39.588 10.443,-69.888 31.399,-90.979c21.034,-21.13 48.178,-31.647 81.638,-31.647c19.833,0 37.711,3.545 53.66,10.672c15.9,7.133 29.04,18.361 39.389,33.791c9.366,13.59 15.389,29.302 18.2,47.202Zm-59.943,5.944c-1.117,-15.858 -6.411,-27.86 -15.945,-36.063c-9.455,-8.225 -21.267,-12.354 -35.361,-12.354c-15.339,0 -27.183,4.413 -35.599,13.089c-8.473,8.657 -13.745,20.427 -15.905,35.33l102.81,0l0,-0.002Z" style="fill:#1c3869;fill-rule:nonzero;"/></svg>