<?xml version="1.0" encoding="UTF-8" standalone="no"?><!DOCTYPE svg PUBLIC "-//W3C//DTD SVG 1.1//EN" "http://www.w3.org/Graphics/SVG/1.1/DTD/svg11.dtd"><svg width="100%" height="100%" viewBox="0 0 512 500" version="1.1" xmlns="http://www.w3.org/2000/svg" xmlns:xlink="http://www.w3.org/1999/xlink" xml:space="preserve" xmlns:serif="http://www.serif.com/" style="fill-rule:evenodd;clip-rule:evenodd;stroke-linejoin:round;stroke-miterlimit:2;"><path d="M477.656,127.762c-22.892,-39.222 -53.944,-70.275 -93.163,-93.165c-39.225,-22.891 -82.047,-34.333 -128.497,-34.333c-46.444,0 -89.28,11.446 -128.497,34.333c-39.223,22.889 -70.273,53.943 -93.166,93.165c-22.888,39.222 -34.333,82.053 -34.333,128.49c0,55.783 16.275,105.944 48.832,150.496c32.555,44.556 74.61,75.387 126.163,92.497c6,1.114 10.443,0.33 13.331,-2.33c2.89,-2.665 4.333,-6.001 4.333,-9.996c0,-0.667 -0.058,-6.664 -0.169,-18c-0.114,-11.335 -0.168,-21.223 -0.168,-29.661l-7.667,1.327c-4.888,0.895 -11.054,1.274 -18.5,1.167c-7.441,-0.104 -15.166,-0.884 -23.165,-2.334c-8.002,-1.437 -15.444,-4.77 -22.334,-9.992c-6.886,-5.222 -11.774,-12.058 -14.663,-20.497l-3.334,-7.67c-2.221,-5.107 -5.719,-10.779 -10.498,-16.997c-4.778,-6.224 -9.61,-10.444 -14.499,-12.665l-2.333,-1.671c-1.556,-1.11 -2.999,-2.449 -4.333,-4.003c-1.333,-1.554 -2.331,-3.109 -2.998,-4.667c-0.668,-1.558 -0.115,-2.837 1.666,-3.84c1.78,-1.003 4.998,-1.489 9.667,-1.489l6.664,0.995c4.444,0.891 9.942,3.552 16.5,7.999c6.554,4.443 11.942,10.22 16.165,17.328c5.113,9.113 11.274,16.057 18.5,20.836c7.22,4.778 14.499,7.164 21.831,7.164c7.331,0 13.664,-0.556 18.999,-1.662c5.33,-1.111 10.33,-2.782 14.999,-5.002c2,-14.895 7.445,-26.338 16.331,-34.336c-12.665,-1.331 -24.052,-3.336 -34.166,-6.001c-10.108,-2.669 -20.553,-7 -31.329,-13.006c-10.782,-5.997 -19.726,-13.445 -26.835,-22.329c-7.11,-8.889 -12.945,-20.56 -17.497,-35c-4.554,-14.447 -6.832,-31.111 -6.832,-49.999c0,-26.893 8.78,-49.778 26.335,-68.668c-8.224,-20.219 -7.447,-42.884 2.332,-67.995c6.444,-2.002 16.001,-0.499 28.666,4.499c12.667,5 21.942,9.284 27.833,12.835c5.891,3.55 10.611,6.559 14.167,8.999c20.671,-5.775 42.002,-8.664 64,-8.664c21.997,0 43.333,2.889 64.005,8.664l12.666,-7.996c8.661,-5.335 18.89,-10.225 30.66,-14.669c11.778,-4.443 20.784,-5.666 27.009,-3.664c9.996,25.111 10.887,47.776 2.661,67.994c17.554,18.89 26.337,41.781 26.337,68.668c0,18.888 -2.286,35.605 -6.833,50.163c-4.554,14.559 -10.439,26.218 -17.659,35c-7.228,8.78 -16.229,16.169 -27.005,22.166c-10.778,6.001 -21.227,10.332 -31.335,13.001c-10.113,2.669 -21.499,4.674 -34.164,6.008c11.551,9.996 17.328,25.774 17.328,47.328l0,70.326c0,3.995 1.389,7.331 4.17,9.996c2.777,2.661 7.164,3.444 13.164,2.329c51.56,-17.107 93.615,-47.939 126.168,-92.495c32.55,-44.552 48.83,-94.713 48.83,-150.496c-0.011,-46.432 -11.462,-89.259 -34.34,-128.481Z" style="fill:#1c3869;fill-rule:nonzero;"/></svg>