<svg width="20" height="20" viewBox="0 0 20 20" xmlns="http://www.w3.org/2000/svg"><g fill="none" fill-rule="evenodd"><path d="M0 0h20v20H0z"/><path d="M10 1c-2.443 0-2.75.01-3.71.054-.958.044-1.612.196-2.185.418A4.407 4.407 0 0 0 2.511 2.51c-.5.5-.808 1.003-1.039 1.594-.223.573-.375 1.227-.418 2.185C1.011 7.249 1 7.556 1 10s.01 2.75.054 3.71c.044.958.196 1.612.419 2.184A4.41 4.41 0 0 0 2.51 17.49c.5.5 1.002.809 1.593 1.038.573.223 1.227.375 2.185.419.96.043 1.267.054 3.71.054 2.445 0 2.751-.01 3.711-.054.958-.044 1.613-.196 2.186-.419a4.403 4.403 0 0 0 1.593-1.038c.5-.5.808-1.003 1.038-1.594.222-.573.374-1.227.419-2.185.043-.96.054-1.266.054-3.71s-.011-2.751-.054-3.711c-.045-.958-.197-1.612-.419-2.184A4.417 4.417 0 0 0 17.49 2.51c-.5-.5-1.002-.808-1.594-1.037-.574-.223-1.228-.375-2.186-.419C12.749 1.011 12.443 1 9.998 1h.003zm-.807 1.622h.808c2.403 0 2.688.009 3.637.052.877.04 1.353.186 1.67.31.42.163.72.358 1.035.673.315.315.51.615.673 1.035.124.317.27.793.31 1.67.043.95.053 1.234.053 3.636s-.01 2.687-.053 3.636c-.04.877-.186 1.353-.31 1.67-.163.42-.358.72-.673 1.034-.315.315-.614.51-1.034.673-.317.124-.794.27-1.671.31-.95.043-1.234.053-3.637.053s-2.688-.01-3.637-.053c-.877-.04-1.354-.187-1.671-.31a2.788 2.788 0 0 1-1.035-.673 2.79 2.79 0 0 1-.674-1.035c-.123-.316-.27-.793-.31-1.67-.043-.949-.051-1.234-.051-3.637 0-2.404.008-2.687.051-3.636.04-.877.187-1.354.31-1.67a2.8 2.8 0 0 1 .674-1.036c.315-.315.615-.51 1.035-.673.317-.124.794-.27 1.671-.31.83-.038 1.152-.05 2.83-.051v.002zm5.612 1.494a1.08 1.08 0 1 0 0 2.16 1.08 1.08 0 0 0 0-2.16zm-4.804 1.262a4.622 4.622 0 1 0 0 9.244 4.622 4.622 0 0 0 0-9.244zM10 7a3 3 0 1 1 0 6 3 3 0 0 1 0-6z" fill="#fff"/></g></svg>