<?xml version="1.0" encoding="UTF-8" standalone="no"?><!DOCTYPE svg PUBLIC "-//W3C//DTD SVG 1.1//EN" "http://www.w3.org/Graphics/SVG/1.1/DTD/svg11.dtd"><svg width="100%" height="100%" viewBox="0 0 512 512" version="1.1" xmlns="http://www.w3.org/2000/svg" xmlns:xlink="http://www.w3.org/1999/xlink" xml:space="preserve" xmlns:serif="http://www.serif.com/" style="fill-rule:evenodd;clip-rule:evenodd;stroke-linejoin:round;stroke-miterlimit:2;"><path id="post-linkedin" d="M460.8,0l-409.6,0c-28.16,0 -51.2,23.04 -51.2,51.2l0,409.6c0,28.16 23.04,51.2 51.2,51.2l409.6,0c28.16,0 51.2,-23.04 51.2,-51.2l0,-409.6c0,-28.16 -23.04,-51.2 -51.2,-51.2Zm-307.2,435.2l-76.8,0l0,-230.4l76.8,0l0,230.4Zm-38.4,-273.92c-25.6,0 -46.08,-20.48 -46.08,-46.08c0,-25.6 20.48,-46.08 46.08,-46.08c25.6,0 46.08,20.48 46.08,46.08c0,25.6 -20.48,46.08 -46.08,46.08Zm320,273.92l-76.8,0l0,-135.68c0,-20.479 -17.92,-38.4 -38.4,-38.4c-20.48,0 -38.4,17.921 -38.4,38.4l0,135.68l-76.8,0l0,-230.4l76.8,0l0,30.72c12.8,-20.48 40.96,-35.84 64,-35.84c48.64,0 89.6,40.96 89.6,89.6l0,145.92Z" style="fill:#1c3869;fill-rule:nonzero;"/></svg>