<svg width="20" height="20" viewBox="0 0 20 20" xmlns="http://www.w3.org/2000/svg"><g fill="none" fill-rule="evenodd"><path d="M0 0h20v20H0z"/><path d="M4.825 7.082v10.544H1.214V7.082h3.611zm.238-3.26c0 1.011-.784 1.821-2.043 1.821h-.024C1.784 5.643 1 4.833 1 3.821 1 2.787 1.808 2 3.043 2c1.236 0 1.997.787 2.02 1.821zm12.788 7.758v6.046h-3.612v-5.641c0-1.417-.523-2.384-1.83-2.384-.998 0-1.592.652-1.853 1.282-.096.225-.12.54-.12.855v5.888h-3.61s.047-9.554 0-10.543h3.612v1.493c.48-.718 1.338-1.741 3.255-1.741 2.377 0 4.159 1.507 4.159 4.745z" fill="#fff"/></g></svg>